Coordinates
version=1
nRows=16
nColumns=63
inDegrees=yes

Units are S.I. units (second, meters, Newtons, ...)
If the header above contains a line with 'inDegrees', this indicates whether rotational values are in degrees (yes) or radians (no).

endheader
time	pelvis_tilt	pelvis_list	pelvis_rotation	pelvis_tx	pelvis_ty	pelvis_tz	hip_flexion_r	hip_adduction_r	hip_rotation_r	knee_angle_r	knee_angle_r_beta	ankle_angle_r	subtalar_angle_r	mtp_angle_r	hip_flexion_l	hip_adduction_l	hip_rotation_l	knee_angle_l	knee_angle_l_beta	ankle_angle_l	subtalar_angle_l	mtp_angle_l	L5_S1_Flex_Ext	L5_S1_Lat_Bending	L5_S1_axial_rotation	L4_L5_Flex_Ext	L4_L5_Lat_Bending	L4_L5_axial_rotation	L3_L4_Flex_Ext	L3_L4_Lat_Bending	L3_L4_axial_rotation	L2_L3_Flex_Ext	L2_L3_Lat_Bending	L2_L3_axial_rotation	L1_L2_Flex_Ext	L1_L2_Lat_Bending	L1_L2_axial_rotation	L1_T12_Flex_Ext	L1_T12_Lat_Bending	L1_T12_axial_rotation	Abs_r3	Abs_r2	Abs_r1	Abs_t1	Abs_t2	neck_flexion	neck_bending	neck_rotation	arm_flex_r	arm_add_r	arm_rot_r	elbow_flex_r	pro_sup_r	wrist_flex_r	wrist_dev_r	arm_flex_l	arm_add_l	arm_rot_l	elbow_flex_l	pro_sup_l	wrist_flex_l	wrist_dev_l
2.490196	7.714881	-6.168886	85.239900	0.142952	1.010996	0.182014	-5.444330	3.390161	-5.640183	11.324553	0.197651	28.464660	3.851314	0.000000	-13.351313	-5.272086	-11.708186	0.804138	0.014035	24.747153	4.108016	0.000000	-0.323646	1.469754	1.135571	-0.601044	1.954773	1.206544	-0.531719	3.573561	1.206544	-0.369896	3.573561	0.993625	-0.300538	2.997123	0.922651	-0.184932	2.276649	0.851678	-2.311774	16.626155	6.315705	0.000000	0.000000	-5.873615	-2.786772	-1.598677	-55.878662	-125.970255	-13.099655	6.775133	27.784799	-56.168771	31.176214	42.865167	-48.448341	-16.672969	52.828616	80.381759	-33.112566	-11.863289
2.509804	7.657811	-6.166550	85.368402	0.142901	1.010784	0.182549	-5.404559	3.331426	-5.673942	11.389392	0.198782	28.662752	3.991102	0.000000	-13.274140	-5.239985	-11.132387	0.824000	0.014382	24.602116	3.453110	0.000000	-0.335238	1.437664	1.021989	-0.622570	1.912093	1.085863	-0.550762	3.495536	1.085863	-0.383143	3.495536	0.894240	-0.311302	2.931684	0.830366	-0.191555	2.226941	0.766492	-2.394568	16.263142	5.683997	0.000000	0.000000	-5.966870	-2.175935	-1.560860	-62.564030	-126.250432	-12.043887	3.657077	21.121849	-61.119404	31.282720	40.093532	-48.344188	-23.238986	54.032223	85.093235	-34.935636	-10.523669
2.529412	7.554407	-6.129270	85.566092	0.142909	1.010622	0.183253	-5.385094	3.240637	-5.767221	11.460168	0.200018	28.913352	4.156980	0.000000	-13.201829	-5.184883	-10.464339	0.867203	0.015136	24.437204	2.743471	0.000000	-0.344999	1.400570	0.933722	-0.640697	1.862758	0.992080	-0.566798	3.405346	0.992080	-0.394299	3.405346	0.817007	-0.320366	2.856042	0.758650	-0.197132	2.169483	0.700292	-2.464290	15.843528	5.193084	0.000000	0.000000	-6.078632	-1.583924	-1.703771	-69.342218	-126.304710	-11.808485	1.120239	15.402233	-64.742694	31.380094	38.274321	-47.863932	-25.619237	53.863189	88.113405	-36.532033	-9.058435
2.549020	7.398668	-6.067642	85.848637	0.142978	1.010466	0.184063	-5.383366	3.117930	-5.913623	11.535631	0.201335	29.200726	4.292108	0.000000	-13.127158	-5.105101	-9.691435	0.931307	0.016254	24.236162	1.974327	0.000000	-0.351266	1.357307	0.853110	-0.652336	1.805218	0.906429	-0.577095	3.300156	0.906429	-0.401462	3.300156	0.746471	-0.326186	2.767820	0.693152	-0.200713	2.102469	0.639832	-2.509058	15.354128	4.744740	0.000000	0.000000	-6.170173	-1.036713	-1.952719	-76.040970	-126.281937	-12.366726	-0.794349	10.538378	-66.723424	31.361384	37.340947	-47.115503	-24.364469	52.453233	89.838268	-37.865548	-7.563070
2.568627	7.203687	-5.988909	86.209483	0.143111	1.010278	0.184923	-5.399232	2.983665	-6.044240	11.616032	0.202738	29.482001	4.285096	0.000000	-13.053859	-5.011763	-8.759616	1.008196	0.017596	23.997232	1.071073	0.000000	-0.352353	1.308793	0.778992	-0.654355	1.740695	0.827679	-0.578881	3.182200	0.827679	-0.402704	3.182200	0.681618	-0.327195	2.668891	0.632931	-0.201334	2.027321	0.584244	-2.516821	14.805332	4.332519	0.000000	0.000000	-6.207797	-0.541940	-2.315429	-82.351940	-126.254666	-13.834841	-2.002163	6.728149	-66.862953	31.170060	37.234379	-46.108081	-19.672685	49.964153	90.241348	-38.852070	-5.917063
2.588235	6.989687	-5.901542	86.624218	0.143256	1.010057	0.185801	-5.431069	2.855644	-6.102066	11.691489	0.204055	29.705930	4.065178	0.000000	-12.982210	-4.915715	-7.785732	1.092631	0.019070	23.759023	0.162470	0.000000	-0.349543	1.259795	0.707743	-0.649135	1.675527	0.751976	-0.574263	3.063066	0.751976	-0.399492	3.063066	0.619275	-0.324585	2.568974	0.575041	-0.199729	1.951423	0.530807	-2.496747	14.251054	3.936252	0.000000	0.000000	-6.138911	-0.180600	-2.702843	-88.265014	-126.198864	-17.140791	-2.323143	4.749244	-65.770136	30.780450	37.766180	-44.897121	-11.688071	46.557550	88.891141	-39.609129	-4.456080
2.607843	6.775084	-5.808546	87.101670	0.143361	1.009815	0.186706	-5.470227	2.750993	-6.103099	11.772382	0.205467	29.852785	3.614958	0.000000	-12.906277	-4.837539	-6.796230	1.183723	0.020660	23.552889	-0.692859	0.000000	-0.342131	1.214226	0.651877	-0.635372	1.614921	0.692619	-0.562087	2.952270	0.692619	-0.391022	2.952270	0.570392	-0.317703	2.476051	0.529650	-0.195494	1.880837	0.488908	-2.443809	13.735573	3.625543	0.000000	0.000000	-5.963398	0.023068	-3.144003	-93.678412	-126.057336	-22.198228	-1.823820	4.777731	-63.671472	30.236762	38.874815	-43.442637	-0.935935	42.417902	85.628737	-39.892534	-3.194120
2.627451	6.582612	-5.713081	87.597718	0.143404	1.009578	0.187638	-5.510062	2.683102	-6.013745	11.855819	0.206923	29.903035	2.935043	0.000000	-12.832911	-4.782852	-5.773413	1.270964	0.022183	23.370618	-1.590925	0.000000	-0.330945	1.177239	0.631149	-0.614598	1.565727	0.670595	-0.543710	2.862338	0.670595	-0.378237	2.862338	0.552255	-0.307316	2.400625	0.512808	-0.189102	1.823543	0.473361	-2.363908	13.317158	3.510259	0.000000	0.000000	-5.686723	0.017610	-3.662901	-98.600682	-125.769736	-28.995536	-0.649728	6.914356	-60.802917	29.497814	40.483542	-41.748067	11.945216	37.786233	79.993313	-39.358622	-2.010880
2.647059	6.405718	-5.612235	88.117904	0.143389	1.009374	0.188573	-5.558110	2.641609	-5.900835	11.928675	0.208195	29.877413	2.118674	0.000000	-12.760182	-4.751211	-4.851062	1.360519	0.023746	23.252076	-2.321499	0.000000	-0.317380	1.147896	0.648175	-0.589407	1.526702	0.688686	-0.521424	2.790995	0.688686	-0.362734	2.790995	0.567153	-0.294719	2.340790	0.526642	-0.181351	1.778091	0.486131	-2.267016	12.985231	3.604953	0.000000	0.000000	-5.324254	-0.175271	-4.276110	-103.191234	-125.283647	-37.896541	1.022157	11.404290	-57.375627	28.510289	42.518103	-39.818806	26.144741	32.784844	72.876954	-37.377629	-0.594890
2.666667	6.214129	-5.513456	88.639988	0.143414	1.009249	0.189484	-5.603378	2.592667	-5.807903	11.985981	0.209195	29.807050	1.275987	0.000000	-12.678851	-4.714674	-4.120759	1.452999	0.025360	23.192319	-2.773831	0.000000	-0.301254	1.119129	0.699317	-0.559459	1.488442	0.743024	-0.494930	2.721050	0.743024	-0.344303	2.721050	0.611902	-0.279745	2.282128	0.568195	-0.172137	1.733531	0.524487	-2.151828	12.659812	3.889389	0.000000	0.000000	-4.904843	-0.460985	-4.998952	-108.538881	-124.893199	-43.873437	1.676037	12.824192	-52.877955	27.246981	44.872106	-37.737220	41.046479	27.564042	65.035184	-33.437326	1.068624
2.686275	6.048920	-5.423288	89.130060	0.143404	1.009168	0.190276	-5.647777	2.559551	-5.775807	12.017936	0.209753	29.718692	0.547881	0.000000	-12.602095	-4.698392	-3.663700	1.540401	0.026885	23.213903	-2.889060	0.000000	-0.282774	1.097360	0.794385	-0.525140	1.459489	0.844034	-0.464570	2.668121	0.844034	-0.323183	2.668121	0.695087	-0.262584	2.237736	0.645438	-0.161577	1.699810	0.595788	-2.019828	12.413554	4.418129	0.000000	0.000000	-4.398738	-0.848853	-5.850011	-113.812328	-124.213174	-50.068576	2.479233	14.204413	-47.971678	25.624298	47.465438	-35.578812	56.547502	22.258450	56.534764	-27.408321	2.437250
2.705882	5.926177	-5.348979	89.562193	0.143338	1.009118	0.190897	-5.687747	2.547180	-5.843300	12.017543	0.209746	29.643853	0.054241	0.000000	-12.532871	-4.709721	-3.486282	1.619581	0.028267	23.318648	-2.691619	0.000000	-0.262584	1.085277	0.918962	-0.487645	1.443418	0.976397	-0.431400	2.638742	0.976397	-0.300108	2.638742	0.804092	-0.243836	2.213097	0.746657	-0.150041	1.681094	0.689222	-1.875613	12.276869	5.110992	0.000000	0.000000	-3.815310	-1.352853	-6.729301	-118.771498	-123.300526	-55.846292	3.494264	15.208517	-42.925639	23.651322	50.085714	-33.552973	72.358635	17.098302	47.869086	-19.689989	3.320551
2.725490	5.855236	-5.299504	89.898339	0.143215	1.009090	0.191313	-5.710951	2.555777	-6.005255	11.992508	0.209309	29.601497	-0.157830	0.000000	-12.474544	-4.745807	-3.592217	1.682813	0.029371	23.495959	-2.217422	0.000000	-0.240730	1.084189	1.060258	-0.447059	1.441971	1.126524	-0.395495	2.636097	1.126524	-0.275130	2.636097	0.927726	-0.223541	2.210878	0.861459	-0.137553	1.679409	0.795193	-1.719507	12.264563	5.896836	0.000000	0.000000	-3.179077	-1.956541	-7.532951	-123.031760	-122.263266	-60.230123	4.759380	15.424293	-37.935203	21.367503	52.545832	-31.855698	88.110663	12.285195	39.192786	-10.795527	3.667329
2.745098	5.827977	-5.259155	90.125663	0.143077	1.009119	0.191524	-5.739197	2.579230	-6.221525	11.933950	0.208287	29.579058	-0.124866	0.000000	-12.445255	-4.794599	-3.901591	1.727087	0.030143	23.705667	-1.585104	0.000000	-0.220186	1.090199	1.205109	-0.408908	1.449965	1.280428	-0.361744	2.650711	1.280428	-0.251651	2.650711	1.054470	-0.204465	2.223135	0.979151	-0.125814	1.688719	0.903832	-1.572768	12.332554	6.702455	0.000000	0.000000	-2.533896	-2.599761	-8.251013	-126.959460	-121.215667	-63.445852	6.135599	14.633318	-32.892807	18.664874	54.745086	-30.614224	103.488934	8.011928	30.732584	-1.372024	3.591788
2.764706	5.878472	-5.217640	90.213121	0.142842	1.009194	0.191527	-5.782630	2.640509	-6.439545	11.852349	0.206863	29.554440	0.122661	0.000000	-12.466854	-4.873072	-4.436986	1.745365	0.030462	23.960603	-0.799862	0.000000	-0.202630	1.108257	1.359207	-0.376305	1.473982	1.444158	-0.332902	2.694616	1.444158	-0.231586	2.694616	1.189306	-0.188163	2.259958	1.104356	-0.115783	1.716690	1.019406	-1.447369	12.536825	7.559504	0.000000	0.000000	-1.896798	-3.279266	-8.892026	-130.231013	-120.028389	-65.228619	7.632000	12.899227	-27.750716	15.663034	56.587728	-29.816949	117.939811	4.420888	22.724525	8.061806	3.078701
2.784314	5.876110	-5.179193	90.209614	0.142829	1.009358	0.191380	-5.830978	2.644820	-6.624033	11.751561	0.205103	29.527775	0.427319	0.000000	-12.506431	-4.888277	-5.141833	1.746025	0.030474	24.211945	0.185697	0.000000	-0.188286	1.110709	1.493229	-0.349667	1.477242	1.586555	-0.309336	2.700577	1.586555	-0.215192	2.700577	1.306575	-0.174843	2.264957	1.213248	-0.107587	1.720488	1.119921	-1.344911	12.564558	8.304889	0.000000	0.000000	-1.318297	-3.696979	-9.515995	-136.337940	-117.906454	-70.870436	8.916932	12.021870	-22.216503	12.804491	58.253013	-29.591873	131.112609	1.626269	15.415744	17.379535	2.120972
